<svg width="1024" height="1024" viewBox="0 0 1024 1024" fill="none" xmlns="http://www.w3.org/2000/svg">
  <rect width="1024" height="1024" rx="224" fill="#F5F6FA"/>
  <rect x="86" y="86" width="852" height="852" rx="196" fill="white" stroke="#E7EAF0" stroke-width="8"/>
  <path d="M302 582C302 502.471 366.471 438 446 438H578C657.529 438 722 502.471 722 582V598C722 691.888 645.888 768 552 768H472C378.112 768 302 691.888 302 598V582Z" fill="#D16D42"/>
  <path d="M338 598H686C686 670.902 626.902 730 554 730H470C397.098 730 338 670.902 338 598Z" fill="#111827" opacity="0.12"/>
  <path d="M399 395C399 354.696 431.696 322 472 322C483.961 322 495.25 324.87 505.214 329.962C515.178 324.87 526.467 322 538.428 322C578.732 322 611.428 354.696 611.428 395C611.428 462.527 505.214 518 505.214 518C505.214 518 399 462.527 399 395Z" fill="#111827"/>
  <path d="M434 266C434 236.729 457.729 213 487 213C511.586 213 531.5 232.914 531.5 257.5V321" stroke="#D16D42" stroke-width="28" stroke-linecap="round"/>
  <path d="M579 256C579 232.252 598.252 213 622 213C645.748 213 665 232.252 665 256V336" stroke="#D16D42" stroke-width="28" stroke-linecap="round"/>
  <path d="M345 554H679" stroke="white" stroke-width="24" stroke-linecap="round" opacity="0.55"/>
</svg>
