<svg width="1200" height="900" viewBox="0 0 1200 900" fill="none" xmlns="http://www.w3.org/2000/svg">
  <rect width="1200" height="900" rx="72" fill="#FFF2E4"/>
  <rect x="120" y="120" width="960" height="660" rx="56" fill="#FFF9F2"/>
  <rect x="455" y="245" width="290" height="360" rx="58" fill="#F9FBFF" stroke="#243041" stroke-width="18"/>
  <rect x="475" y="305" width="250" height="260" rx="42" fill="#EAA145"/>
  <rect x="510" y="188" width="180" height="86" rx="24" fill="#F9FBFF" stroke="#243041" stroke-width="18"/>
  <path d="M670 152C710 112 763 95 818 102" stroke="#243041" stroke-width="22" stroke-linecap="round"/>
  <path d="M677 167L729 115" stroke="#243041" stroke-width="18" stroke-linecap="round"/>
  <ellipse cx="526" cy="226" rx="42" ry="30" fill="#B9D36B"/>
  <ellipse cx="578" cy="199" rx="56" ry="42" fill="#C9E07B"/>
  <path d="M579 172C592 150 615 132 646 121" stroke="#7AA24A" stroke-width="14" stroke-linecap="round"/>
  <path d="M540 350C571 331 611 322 651 325" stroke="#F7D27A" stroke-width="18" stroke-linecap="round"/>
  <path d="M527 427C573 401 629 393 685 404" stroke="#FFD987" stroke-width="22" stroke-linecap="round"/>
  <path d="M528 500C572 479 620 473 668 482" stroke="#F7D27A" stroke-width="20" stroke-linecap="round"/>
</svg>
